<svg width="18" height="17" viewBox="0 0 18 17" fill="none" xmlns="http://www.w3.org/2000/svg">
<g clip-path="url(#clip0_3221_455)">
<path d="M14.4785 2.125H12.8848V1.59375C12.8848 1.45285 12.8288 1.31773 12.7292 1.2181C12.6295 1.11847 12.4944 1.0625 12.3535 1.0625C12.2126 1.0625 12.0775 1.11847 11.9779 1.2181C11.8782 1.31773 11.8223 1.45285 11.8223 1.59375V2.125H6.50977V1.59375C6.50977 1.45285 6.45379 1.31773 6.35417 1.2181C6.25454 1.11847 6.11941 1.0625 5.97852 1.0625C5.83762 1.0625 5.70249 1.11847 5.60287 1.2181C5.50324 1.31773 5.44727 1.45285 5.44727 1.59375V2.125H3.85352C3.57172 2.125 3.30147 2.23694 3.10221 2.4362C2.90296 2.63546 2.79102 2.90571 2.79102 3.1875V13.8125C2.79102 14.0943 2.90296 14.3645 3.10221 14.5638C3.30147 14.7631 3.57172 14.875 3.85352 14.875H14.4785C14.7603 14.875 15.0306 14.7631 15.2298 14.5638C15.4291 14.3645 15.541 14.0943 15.541 13.8125V3.1875C15.541 2.90571 15.4291 2.63546 15.2298 2.4362C15.0306 2.23694 14.7603 2.125 14.4785 2.125ZM14.4785 5.3125H3.85352V3.1875H5.44727V3.71875C5.44727 3.85965 5.50324 3.99477 5.60287 4.0944C5.70249 4.19403 5.83762 4.25 5.97852 4.25C6.11941 4.25 6.25454 4.19403 6.35417 4.0944C6.45379 3.99477 6.50977 3.85965 6.50977 3.71875V3.1875H11.8223V3.71875C11.8223 3.85965 11.8782 3.99477 11.9779 4.0944C12.0775 4.19403 12.2126 4.25 12.3535 4.25C12.4944 4.25 12.6295 4.19403 12.7292 4.0944C12.8288 3.99477 12.8848 3.85965 12.8848 3.71875V3.1875H14.4785V5.3125Z" fill="#282A3A"/>
</g>
<defs>
<clipPath id="clip0_3221_455">
<rect width="17" height="17" fill="white" transform="translate(0.666016)"/>
</clipPath>
</defs>
</svg>
