<svg width="18" height="17" viewBox="0 0 18 17" fill="none" xmlns="http://www.w3.org/2000/svg">
<g clip-path="url(#clip0_3221_450)">
<path d="M15.6686 14.6094C15.622 14.6901 15.5549 14.7572 15.4741 14.8038C15.3934 14.8505 15.3017 14.875 15.2084 14.875H2.45844C2.36523 14.8749 2.27369 14.8503 2.19301 14.8036C2.11232 14.7569 2.04533 14.6899 1.99877 14.6091C1.95221 14.5284 1.92771 14.4368 1.92773 14.3436C1.92776 14.2504 1.9523 14.1588 1.99891 14.0781C3.01028 12.3296 4.56883 11.0759 6.3877 10.4815C5.488 9.94594 4.789 9.12982 4.39802 8.15851C4.00705 7.1872 3.94573 6.1144 4.22348 5.10486C4.50123 4.09532 5.10268 3.20487 5.93549 2.57025C6.76829 1.93562 7.78639 1.59192 8.83344 1.59192C9.88049 1.59192 10.8986 1.93562 11.7314 2.57025C12.5642 3.20487 13.1657 4.09532 13.4434 5.10486C13.7211 6.1144 13.6598 7.1872 13.2689 8.15851C12.8779 9.12982 12.1789 9.94594 11.2792 10.4815C13.0981 11.0759 14.6566 12.3296 15.668 14.0781C15.7147 14.1588 15.7394 14.2504 15.7395 14.3436C15.7396 14.4369 15.7152 14.5285 15.6686 14.6094Z" fill="#282A3A"/>
</g>
<defs>
<clipPath id="clip0_3221_450">
<rect width="17" height="17" fill="white" transform="translate(0.333008)"/>
</clipPath>
</defs>
</svg>
